<?xml version="1.0" encoding="utf-8"?>
<!-- Generator: Adobe Illustrator 27.2.0, SVG Export Plug-In . SVG Version: 6.00 Build 0)  -->
<svg version="1.1" id="Layer_2" xmlns="http://www.w3.org/2000/svg" xmlns:xlink="http://www.w3.org/1999/xlink" x="0px" y="0px"
	 viewBox="0 0 125 40" style="enable-background:new 0 0 125 40;" xml:space="preserve">
<style type="text/css">
	.st0{fill:none;}
	.st1{fill:#A238FF;}
	.st2{fill:#FFFFFF;}
</style>
<rect class="st0" width="125.0001678" height="40"/>
<g>
	<ellipse class="st1" cx="0.9961848" cy="13.1237116" rx="0.9962698" ry="4.0336685"/>
	<g>
		<g>
			<ellipse class="st1" cx="34.0222473" cy="13.1237116" rx="0.9962698" ry="4.0336685"/>
			<path class="st1" d="M30.6981239,4.9636388c-0.5253334,0-0.9969406,1.1702123-1.3209267,3.0265512
				c-0.526495-3.1996841-1.3794346-5.2813902-2.3427677-5.2813902c-1.1662064,0-2.1707344,3.049866-2.629715,7.442832
				c-0.4428902-3.2409859-1.1286774-5.3238955-1.8991432-5.3238955c-1.0918827,0-2.0144043,4.1790009-2.3149261,9.9174747
				c-0.6401691-3.1268425-1.6172047-5.1266813-2.7124767-5.1266813c-1.0675755,0-2.0226412,1.9007626-2.6631193,4.892417
				c-0.3131256-5.6174574-1.2252378-9.6832104-2.3021917-9.6832104c-0.7704659,0-1.4562521,2.0829096-1.8991432,5.3238955
				c-0.4589806-4.3929663-1.4635086-7.442832-2.629714-7.442832c-0.9633331,0-1.8162742,2.0817058-2.3427691,5.2813902
				c-0.3239846-1.856339-0.7955923-3.0265512-1.3209257-3.0265512c-0.9769721,0-1.7689734,4.0432801-1.7689734,9.0309258
				c0,4.9876356,0.7920012,9.0309153,1.7689734,9.0309153c0.401238,0,0.7711272-0.682951,1.0679078-1.8322353
				c0.4733658,4.223114,1.4576373,7.1277447,2.595787,7.1277447c0.9111948,0,1.7236443-1.8625202,2.254508-4.7717094
				c0.3369522,5.3704605,1.2279549,9.2081509,2.2743492,9.2081509c0.6745758,0,1.2843771-1.5962353,1.7230368-4.1684208
				c0.5146465,5.0986156,1.7718725,8.7021885,3.2422743,8.7021885c1.4929199,0,2.7663422-3.7141495,3.2656326-8.9368038
				c0.4411221,2.7088757,1.0670013,4.4030361,1.7617702,4.4030361c1.0463943,0,1.937397-3.8376904,2.2743492-9.2081509
				c0.5308647,2.9091892,1.3433132,4.7717094,2.254509,4.7717094c1.1381493,0,2.1224213-2.9046307,2.595787-7.1277447
				c0.2967796,1.1492844,0.6666698,1.8322353,1.0679073,1.8322353c0.9769726,0,1.7689743-4.0432796,1.7689743-9.0309153
				C32.4670982,9.0069189,31.6750965,4.9636388,30.6981239,4.9636388z"/>
		</g>
	</g>
	<g>
		<path class="st2" d="M51.8400078,11.2222338h-7.3016434v13.8638525h7.3016434
			c3.8283882,0,6.9319153-3.1035271,6.9319153-6.9319153V18.15415
			C58.7719231,14.3257618,55.668396,11.2222338,51.8400078,11.2222338z M53.2571983,18.7712383
			c0,1.428772-0.6262741,2.5870171-2.0550461,2.5870171h-1.3031006v-6.3773746h1.3031006
			c1.428772,0,2.0550461,1.1582451,2.0550461,2.5870171V18.7712383z"/>
		<polygon class="st2" points="59.6243019,25.0860863 70.9823837,25.0860863 70.9823837,21.3582554 64.984993,21.3582554 
			64.984993,19.6249046 70.6231918,19.6249046 70.6231918,16.5887508 64.984993,16.5887508 64.984993,14.9808807 
			70.9823837,14.9808807 70.9823837,11.2222338 59.6243019,11.2222338 		"/>
		<polygon class="st2" points="72.2863922,25.0860863 83.6444778,25.0860863 83.6444778,21.3582554 77.6470795,21.3582554 
			77.6470795,19.6249046 83.2852859,19.6249046 83.2852859,16.5887508 77.6470795,16.5887508 77.6470795,14.9808807 
			83.6444778,14.9808807 83.6444778,11.2222338 72.2863922,11.2222338 		"/>
		<polygon class="st2" points="98.2171707,25.0860863 109.5752563,25.0860863 109.5752563,21.3582554 103.577858,21.3582554 
			103.577858,19.6249046 109.2160645,19.6249046 109.2160645,16.5887508 103.577858,16.5887508 103.577858,14.9808807 
			109.5752563,14.9808807 109.5752563,11.2222338 98.2171707,11.2222338 		"/>
		<path class="st2" d="M85.0105591,14.9706087h5.6071625c0,0-3.4300232,2.6700773-5.7098618,6.34657v3.7689075h12.2207336
			v-3.7278309h-6.1103668c0,0,1.7766342-2.8343868,6.1103668-6.4287243v-3.7072973H85.0105591V14.9706087z"/>
		<path class="st2" d="M121.6316757,18.1541595c0.8215637-0.2670078,2.7933121-0.6367054,2.7933121-3.3889389
			s-3.4300156-3.5429869-5.6071625-3.5429869c-2.1771393,0-7.9280701,0-7.9280701,0v13.8638525h5.4171753v-5.8328304
			c1.9383163,3.3458157,2.63414,5.8328304,2.63414,5.8328304h6.0590134
			C123.9731293,22.0976505,121.6316757,18.1541595,121.6316757,18.1541595z M119.4494019,16.2671318
			c0,0.6508369-0.5275955,1.1784286-1.178421,1.1784286h-1.9640503v-2.4646797h1.9640503
			c0.6508255,0,1.178421,0.5276031,1.178421,1.1784267V16.2671318z"/>
	</g>
</g>
</svg>
